<svg version="1.2" xmlns="http://www.w3.org/2000/svg" viewBox="0 0 4000 6000" width="4000" height="6000">
	<title>134542187_47721a46-3be3-4389-bfa9-f229ec368409</title>
	<style>
		.s0 { fill: #5b63f2 } 
		.s1 { fill: #a4bbfd } 
	</style>
	<g id="Layer 1">
		<path id="&lt;Path&gt;" class="s0" d="m1999.5 3297.5c-603.9 0-1098-494.2-1098-1098.1v-616.3h-426v616.3c0 782.9 598.3 1432.8 1360.3 1515.1l-271 868.4h985.7l-424.5 1360.7 1000.8-1784.5h-110.8-333.2-541.8l144.5-462.9c702.7-134.8 1238-756.3 1238-1496.8v-616.3h-426v616.3c0 603.9-494.1 1098.1-1098 1098.1z"/>
		<path id="&lt;Path&gt;" class="s1" d="m1115.8 2188.2c0 487.6 398.9 886.5 886.5 886.5 487.6 0 886.5-398.9 886.5-886.5v-273.9h-264.4c-24.1 0-43.7-19.6-43.7-43.7 0-24 19.6-43.7 43.7-43.7h264.4v-114.9h-264.4c-24.1 0-43.7-19.7-43.7-43.7 0-24.1 19.6-43.7 43.7-43.7h264.4v-114.9h-264.4c-24.1 0-43.7-19.7-43.7-43.8 0-24 19.6-43.7 43.7-43.7h264.4v-114.9h-264.4c-24.1 0-43.7-19.7-43.7-43.7 0-24 19.6-43.7 43.7-43.7h264.4v-114.9h-264.4c-24.1 0-43.7-19.7-43.7-43.7 0-24.1 19.6-43.7 43.7-43.7h264.4v-62.1c0-487.6-398.9-886.5-886.5-886.5-487.6 0-886.5 398.9-886.5 886.5v62.1h264.4c24.1 0 43.7 19.6 43.7 43.7 0 24-19.6 43.7-43.7 43.7h-264.4v114.9h264.4c24.1 0 43.7 19.7 43.7 43.7 0 24-19.6 43.7-43.7 43.7h-264.4v114.9h264.4c24.1 0 43.7 19.7 43.7 43.7 0 24.1-19.6 43.8-43.7 43.8h-264.4v114.9h264.4c24.1 0 43.7 19.6 43.7 43.7 0 24-19.6 43.7-43.7 43.7h-264.4v114.9h264.4c24.1 0 43.7 19.7 43.7 43.7 0 24.1-19.6 43.7-43.7 43.7h-264.4z"/>
	</g>
</svg>